<svg width="8" height="5" viewBox="0 0 8 5" fill="none" xmlns="http://www.w3.org/2000/svg">
<path d="M7.87213 1.27019L7.61008 1.10527C7.52761 1.05377 7.41788 1.02539 7.30061 1.02539C7.18341 1.02539 7.07355 1.05377 6.99108 1.10527L4.00179 2.97366L1.00905 1.1032C0.926707 1.05169 0.816852 1.02336 0.699648 1.02336C0.582444 1.02336 0.472524 1.05169 0.390117 1.1032L0.128001 1.2671C-0.042667 1.37369 -0.042667 1.54731 0.128001 1.65389L3.69122 3.88891C3.77356 3.94038 3.88328 3.97664 4.00153 3.97664H4.00289C4.12016 3.97664 4.22989 3.94034 4.31223 3.88891L7.87213 1.65995C7.9546 1.60849 7.99987 1.53784 8 1.46458C8 1.39129 7.9546 1.32162 7.87213 1.27019Z" fill="#808080"/>
</svg>
