<svg width="20" height="17" viewBox="0 0 20 17" fill="none" xmlns="http://www.w3.org/2000/svg">
<path d="M18.5408 1.7561C17.5543 0.692764 16.1859 0.107178 14.6875 0.107178C12.5802 0.107178 11.246 1.30284 10.4979 2.30591C10.3037 2.56619 10.1386 2.82718 10 3.07277C9.86137 2.82718 9.69629 2.56619 9.50215 2.30591C8.75402 1.30284 7.41984 0.107178 5.3125 0.107178C3.81414 0.107178 2.44566 0.692801 1.45918 1.75613C0.518242 2.77048 0 4.12898 0 5.58137C0 7.16234 0.649727 8.6328 2.04473 10.2089C3.29148 11.6176 5.08512 13.0696 7.16211 14.751C7.93605 15.3775 8.73641 16.0255 9.58848 16.7337L9.61406 16.755C9.72453 16.8469 9.86227 16.8928 10 16.8928C10.1377 16.8928 10.2755 16.8468 10.3859 16.755L10.4115 16.7337C11.2636 16.0255 12.0639 15.3776 12.838 14.7509C14.9149 13.0696 16.7085 11.6176 17.9553 10.2089C19.3503 8.63276 20 7.16234 20 5.58137C20 4.12898 19.4818 2.77048 18.5408 1.7561ZM12.0779 13.9036C11.4107 14.4437 10.724 14.9996 10 15.5975C9.27602 14.9997 8.58934 14.4438 7.92203 13.9036C3.85723 10.613 1.17188 8.43905 1.17188 5.58137C1.17188 4.40018 1.58613 3.30307 2.33836 2.4922C3.09922 1.67212 4.15543 1.22046 5.3125 1.22046C6.9191 1.22046 7.95766 2.16074 8.54594 2.94953C9.07363 3.65699 9.34898 4.37015 9.44289 4.64391C9.52145 4.87306 9.74633 5.02814 10 5.02814C10.2537 5.02814 10.4786 4.87306 10.5571 4.64391C10.651 4.37015 10.9264 3.65699 11.4541 2.9495C12.0423 2.16074 13.0809 1.22046 14.6875 1.22046C15.8446 1.22046 16.9008 1.67212 17.6616 2.4922C18.4139 3.30307 18.8281 4.40018 18.8281 5.58137C18.8281 8.43905 16.1428 10.613 12.0779 13.9036Z" fill="#808080"/>
</svg>
