<svg width="18" height="12" viewBox="0 0 18 12" fill="none" xmlns="http://www.w3.org/2000/svg">
<g clip-path="url(#clip0)">
<path d="M17.25 6.48956H0.749992C0.335991 6.48956 -7.62939e-06 6.26556 -7.62939e-06 5.98956C-7.62939e-06 5.71356 0.335991 5.48956 0.749992 5.48956H17.25C17.664 5.48956 18 5.71356 18 5.98956C18 6.26556 17.664 6.48956 17.25 6.48956Z" fill="#808080"/>
<path d="M17.25 2.65622H0.749992C0.335991 2.65622 -7.62939e-06 2.43222 -7.62939e-06 2.15622C-7.62939e-06 1.88022 0.335991 1.65622 0.749992 1.65622H17.25C17.664 1.65622 18 1.88022 18 2.15622C18 2.43222 17.664 2.65622 17.25 2.65622Z" fill="#808080"/>
<path d="M17.25 10.3228H0.749992C0.335991 10.3228 -7.62939e-06 10.0988 -7.62939e-06 9.82282C-7.62939e-06 9.54681 0.335991 9.32281 0.749992 9.32281H17.25C17.664 9.32281 18 9.54681 18 9.82282C18 10.0988 17.664 10.3228 17.25 10.3228Z" fill="#808080"/>
</g>
<defs>
<clipPath id="clip0">
<rect width="18" height="12" fill="white"/>
</clipPath>
</defs>
</svg>
