<svg width="20" height="20" viewBox="0 0 20 20" fill="none" xmlns="http://www.w3.org/2000/svg">
<g clip-path="url(#clip0)">
<path d="M18.8757 8.43162L18.9069 8.43845H5.52379L9.73094 4.22203C9.93696 4.01617 10.05 3.73731 10.05 3.44463C10.05 3.15195 9.93696 2.87504 9.73094 2.6687L9.07631 2.01374C8.87045 1.80788 8.59614 1.69406 8.30362 1.69406C8.01094 1.69406 7.73647 1.80707 7.53061 2.01292L0.318744 9.22414C0.112077 9.43081 -0.000930722 9.70609 -0.000117714 9.99894C-0.000930722 10.2934 0.112077 10.5689 0.318744 10.7752L7.53061 17.9871C7.73647 18.1928 8.01078 18.3059 8.30362 18.3059C8.59614 18.3059 8.87045 18.1926 9.07631 17.9871L9.73094 17.3321C9.93696 17.1266 10.05 16.8521 10.05 16.5594C10.05 16.2669 9.93696 16.0069 9.73094 15.8012L5.47631 11.5612H18.8906C19.4934 11.5612 19.9999 11.0417 19.9999 10.4393V9.51292C19.9999 8.91048 19.4784 8.43162 18.8757 8.43162Z" fill="white"/>
</g>
<defs>
<clipPath id="clip0">
<rect width="20" height="20" fill="white"/>
</clipPath>
</defs>
</svg>
