<svg width="20" height="20" viewBox="0 0 20 20" fill="none" xmlns="http://www.w3.org/2000/svg">
<g clip-path="url(#clip0)">
<path d="M19.6803 9.22294L12.4576 2.00007C12.2515 1.79389 11.9767 1.68073 11.6837 1.68073C11.3903 1.68073 11.1157 1.79406 10.9095 2.00007L10.2538 2.656C10.0477 2.86185 9.93424 3.13681 9.93424 3.42998C9.93424 3.72298 10.0477 4.00721 10.2538 4.21306L14.4674 8.43595H1.08049C0.476918 8.43595 1.14441e-05 8.90847 1.14441e-05 9.51221V10.4395C1.14441e-05 11.0432 0.476918 11.5634 1.08049 11.5634H14.5152L10.2539 15.8099C10.0479 16.0161 9.93441 16.2835 9.93441 16.5767C9.93441 16.8695 10.0479 17.1409 10.2539 17.3469L10.9097 18.0008C11.1159 18.2069 11.3905 18.3193 11.6838 18.3193C11.9768 18.3193 12.2516 18.2055 12.4578 17.9993L19.6805 10.7766C19.8872 10.5698 20.0008 10.2937 20 10.0002C20.0007 9.7057 19.8872 9.42944 19.6803 9.22294Z" fill="white"/>
</g>
<defs>
<clipPath id="clip0">
<rect width="20" height="20" fill="white"/>
</clipPath>
</defs>
</svg>
